<?xml version="1.0" encoding="utf-8"?>
<!-- Generator: Adobe Illustrator 16.0.0, SVG Export Plug-In . SVG Version: 6.00 Build 0)  -->
<!DOCTYPE svg PUBLIC "-//W3C//DTD SVG 1.1//EN" "http://www.w3.org/Graphics/SVG/1.1/DTD/svg11.dtd">
<svg version="1.1" id="Layer_1" xmlns="http://www.w3.org/2000/svg" xmlns:xlink="http://www.w3.org/1999/xlink" x="0px" y="0px"
	 width="160.127px" height="138.608px" viewBox="0 0 160.127 138.608" enable-background="new 0 0 160.127 138.608"
	 xml:space="preserve">
<g>
	<path fill="#D0E7EF" d="M59.865,50.066c0,0,48.517-3.118,53.673,12.234c2.508,7.463-14.402,21.125-30.703,26.147
		c-19.09,5.88-37.201,10.222-36.734,11.312c0.467,1.092,93.465-15.87,95.084-38.898c1.619-23.028-20.51-13.853-22.85-15.113
		C94.626,44.311,60.046,47.367,59.865,50.066z"/>
	<path fill="#A9DDF2" d="M59.865,50.066c0,0,53.413-7.915,53.612,10.974c0.084,7.873-14.197,17.859-29.684,25.007
		c-18.137,8.37-37.702,12.286-37.781,13.673c-0.107,1.868,94.451-20.869,94.451-45.876c0,0,1.979-11.874-25.547-11.694
		C87.392,42.33,59.685,47.367,59.865,50.066z"/>
	<path fill="#EDF2D0" d="M95.157,65.242c0,0-53.414,8.634-53.612-10.255c-0.083-7.873,13.327-16.483,28.815-23.631
		c18.135-8.371,37.42-11.514,37.42-11.514c0.775-0.916,1.23-4.254,0.959-4.197c-13.812,2.92-94.181,24.035-94.181,46.539
		c0,0-0.51,17.328,27.016,17.148C69.101,79.151,95.337,67.94,95.157,65.242z"/>
	<path fill="#CEE098" d="M95.157,65.242c0,0-53.414,7.915-53.612-10.975c-0.083-7.873,14.196-17.859,29.685-25.007
		c18.137-8.371,37.443-12.325,37.781-13.673c0.359-1.439-94.452,20.869-94.452,45.876c0,0-1.979,11.875,25.548,11.694
		C67.632,72.978,95.337,67.94,95.157,65.242z"/>
</g>
<!--<text transform="matrix(1.0637 0 0 1 24.3032 123.4653)" fill="#575756" font-family="'Sansation-Light'" font-size="20.7566" letter-spacing="1.88">SPRETTA</text>-->
</svg>
